<svg xmlns="http://www.w3.org/2000/svg" xmlns:xlink="http://www.w3.org/1999/xlink" width="412" height="389" viewBox="0 0 412 389">
  <defs>
    <clipPath id="clip-Chat_user">
      <rect width="400" height="300"/>
    </clipPath>
  </defs>
  <g id="Chat_user" data-name="Chat user" clip-path="url(#clip-Chat_user)">
    <path id="Icon_awesome-rocketchat" data-name="Icon awesome-rocketchat" d="M170.721,33.486c-27-16.159-62.889-19.838-92.7-14.964C44.666-10.617,7.29,2.786,0,6.639c0,0,25.65,19.742,21.484,37.033-30.367,28.04-15.931,59.258,0,74C25.65,134.963,0,154.705,0,154.705c7.22,3.866,44.494,17.227,78.02-11.763,29.746,4.842,65.633,1.2,92.7-14.993,41.858-24.206,41.995-70.134,0-94.467Zm-67.469,94.308a130.887,130.887,0,0,1-30.925-3.615l-6.939,6.069a63,63,0,0,1-12.842,8.708A54.271,54.271,0,0,1,34.4,143.639c.351-.566.66-1.132.972-1.666q10.414-17.485,5.616-31.374c-11.417-8.142-18.251-18.547-18.251-29.925,0-26.069,36.06-47.187,80.519-47.187S183.77,54.605,183.77,80.674,147.71,127.794,103.252,127.794ZM64.623,91.9c-6.637.085-12.1-4.709-12.214-10.72-.246-14.43,23.807-14.745,24.049-.347v.162a10.3,10.3,0,0,1-3.421,7.677A12.571,12.571,0,0,1,64.623,91.9Zm25.892-10.72c-.277-14.43,23.775-14.776,24.053-.378v.194C114.7,95.323,90.792,95.479,90.514,81.176ZM140.838,91.9c-6.637.085-12.1-4.708-12.218-10.72-.242-14.43,23.811-14.745,24.053-.347v.162a10.263,10.263,0,0,1-3.409,7.688,12.534,12.534,0,0,1-8.426,3.223Z" transform="translate(121 101.387)" fill="#fff"/>
  </g>
</svg>
