<svg xmlns="http://www.w3.org/2000/svg" xmlns:xlink="http://www.w3.org/1999/xlink" width="412" height="389" viewBox="0 0 412 389">
  <defs>
    <clipPath id="clip-Email">
      <rect width="412" height="389"/>
    </clipPath>
  </defs>
  <g id="Email" clip-path="url(#clip-Email)">
    <path id="envelope-fill" d="M.91,32.674A36.234,36.234,0,0,1,36.234,4.5h217.4a36.235,36.235,0,0,1,35.333,28.18L144.934,120.7ZM0,53.359v128.7l105.134-64.456Zm122.486,74.875L3.454,201.192A36.234,36.234,0,0,0,36.234,221.9h217.4a36.237,36.237,0,0,0,32.759-20.733L167.359,128.218l-22.425,13.72-22.449-13.712Zm62.249-10.62,105.134,64.448V53.359L184.735,117.6Z" transform="translate(61.066 81.299)" fill="#fff" fill-rule="evenodd"/>
  </g>
</svg>
