<svg xmlns="http://www.w3.org/2000/svg" xmlns:xlink="http://www.w3.org/1999/xlink" width="412" height="389" viewBox="0 0 412 389">
  <defs>
    <clipPath id="clip-Menu_2">
      <rect width="412" height="389"/>
    </clipPath>
  </defs>
  <g id="Menu_2" data-name="Menu 2" clip-path="url(#clip-Menu_2)">
    <g id="More" transform="translate(180.693 62.924)">
      <path id="Union_1" data-name="Union 1" d="M0,214.2c0-13.137,11.191-23.8,25.007-23.8,13.8,0,24.993,10.667,24.993,23.8S38.809,238,25.007,238C11.191,238,0,227.333,0,214.2Zm0-95.2C0,105.856,11.191,95.2,25.007,95.2,38.809,95.2,50,105.856,50,118.993s-11.191,23.8-24.993,23.8C11.191,142.8,0,132.144,0,118.993ZM0,23.8C0,10.653,11.191,0,25.007,0,38.809,0,50,10.653,50,23.8s-11.191,23.79-24.993,23.79C11.191,47.594,0,36.942,0,23.8Z" transform="translate(0.307 0.076)" fill="#fff"/>
    </g>
  </g>
</svg>
