<svg xmlns="http://www.w3.org/2000/svg" xmlns:xlink="http://www.w3.org/1999/xlink" width="412" height="389" viewBox="0 0 412 389">
  <defs>
    <clipPath id="clip-Mũi_tên_môn_học">
      <rect width="412" height="389"/>
    </clipPath>
  </defs>
  <g id="Mũi_tên_môn_học" data-name="Mũi tên môn học" clip-path="url(#clip-Mũi_tên_môn_học)">
    <path id="icon" d="M92.845,191.285,4.467,105.93a11.174,11.174,0,0,1-1.191-1,10.711,10.711,0,0,1,0-15.415,11.166,11.166,0,0,1,1.188-1L92.845,3.16a11.459,11.459,0,0,1,15.807,0,10.534,10.534,0,0,1,0,15.265l-70.2,67.8H244.859a1,1,0,0,1,1,1v19.589a1,1,0,0,1-1,1H38.028l70.623,68.206a10.535,10.535,0,0,1,0,15.266,11.459,11.459,0,0,1-15.807,0Z" transform="translate(329.393 291.286) rotate(180)" fill="#fff"/>
  </g>
</svg>
