<svg xmlns="http://www.w3.org/2000/svg" xmlns:xlink="http://www.w3.org/1999/xlink" width="412" height="389" viewBox="0 0 412 389">
  <defs>
    <clipPath id="clip-Thay_đổi_thông_tin_">
      <rect width="412" height="389"/>
    </clipPath>
    <linearGradient id="myGradient">
      <stop offset="5%"  stop-color="#5B77FF" />
      <stop offset="95%" stop-color="#37D8B9" />
    </linearGradient>
  </defs>
  <g id="Thay_đổi_thông_tin_" data-name="Thay đổi thông tin " clip-path="url(#clip-Thay_đổi_thông_tin_)">
    <path id="Icon_metro-profile" data-name="Icon metro-profile" d="M294.838,40.714H272.973V8.394l-45.137-.682.234,33H92.438l.927-33-44.2.682v33l-22.334-.682a22.178,22.178,0,0,0-22.334,22V216.725a22.178,22.178,0,0,0,22.334,22H294.838a22.178,22.178,0,0,0,22.334-22V62.715A22.178,22.178,0,0,0,294.838,40.714ZM239,18.713h22.334v44H239ZM93.834,93.649c13.49,0,24.433,14.158,24.433,31.627S107.324,156.9,93.834,156.9,69.4,142.745,69.4,125.276,80.344,93.649,93.834,93.649Zm-33.5-74.936H82.667v44H60.333ZM45.448,194.151s2.647-20.923,8.666-24.872S77.452,162.7,77.452,162.7s11.234,11.826,16.013,11.826,16-11.826,16-11.826,17.331,2.618,23.35,6.578c7.069,4.642,8.833,24.872,8.833,24.872h-96.2ZM272.5,183.723H172v-11H272.5Zm0-22H172v-11H272.5Zm0-22H172v-11H272.5Zm0-22H172v-11H272.5Z" transform="translate(45.2 70.905)" fill="url(#myGradient)"/>
  </g>
</svg>
