<svg xmlns="http://www.w3.org/2000/svg" xmlns:xlink="http://www.w3.org/1999/xlink" width="412" height="389" viewBox="0 0 412 389">
  <defs>
    <clipPath id="clip-Trò_truyện">
      <rect width="412" height="389"/>
    </clipPath>
  </defs>
  <g id="Trò_truyện" data-name="Trò truyện" clip-path="url(#clip-Trò_truyện)">
    <g id="Group_trò_truyện" data-name="Group trò truyện" transform="translate(28.473 -741.527)">
      <g id="Icon_ionic-ios-chatbubbles" data-name="Icon ionic-ios-chatbubbles" transform="translate(49 807)">
        <path id="Path_82" data-name="Path 82" d="M203.581,172.638a15.043,15.043,0,0,1,2.049-7.575,20.91,20.91,0,0,1,1.3-1.925,100.61,100.61,0,0,0,17.137-56.069C224.258,49.82,175.95,3.375,116.218,3.375c-52.1,0-95.56,35.455-105.743,82.52a99.783,99.783,0,0,0-2.3,21.236c0,57.311,46.445,105,106.178,105,9.5,0,22.291-2.856,29.308-4.781s13.971-4.471,15.771-5.154a16.416,16.416,0,0,1,5.775-1.056,16.143,16.143,0,0,1,6.271,1.242l35.206,12.481a8.4,8.4,0,0,0,2.422.621,4.942,4.942,0,0,0,4.967-4.967,7.977,7.977,0,0,0-.31-1.676Z" transform="translate(34.232 -3.375)" fill="#fff"/>
        <path id="Path_83" data-name="Path 83" d="M171.334,142.675c-2.235.621-5.092,1.3-8.2,1.987-6.52,1.366-14.84,2.794-21.111,2.794-59.733,0-106.178-47.687-106.178-105a117.391,117.391,0,0,1,.931-13.288c.373-2.67.807-5.34,1.428-7.948.621-2.794,1.366-5.588,2.173-8.32l-4.967,4.409A92.4,92.4,0,0,0,3.375,86.792a91.375,91.375,0,0,0,15.4,50.916c1.428,2.173,2.235,3.85,1.987,4.967s-7.389,38.5-7.389,38.5a4.981,4.981,0,0,0,1.676,4.781,5.059,5.059,0,0,0,3.167,1.118,4.454,4.454,0,0,0,1.8-.373l34.834-13.722a9.7,9.7,0,0,1,7.451.124,104.5,104.5,0,0,0,37.69,7.451,97.519,97.519,0,0,0,74.573-34.213s1.987-2.732,4.284-5.961C176.55,141.185,173.942,141.992,171.334,142.675Z" transform="translate(-3.375 71.233)" fill="#fff"/>
      </g>
    </g>
  </g>
</svg>
