<svg xmlns="http://www.w3.org/2000/svg" xmlns:xlink="http://www.w3.org/1999/xlink" width="412" height="389" viewBox="0 0 412 389">
  <defs>
    <clipPath id="clip-Lớp">
      <rect width="412" height="389"/>
    </clipPath>
  </defs>
  <g id="Lớp" clip-path="url(#clip-Lớp)">
    <path id="Icon_sách" data-name="Icon sách" d="M217.533,174.8V11.654A11.626,11.626,0,0,0,205.88,0H46.614A46.626,46.626,0,0,0,0,46.614V202a46.626,46.626,0,0,0,46.614,46.614H205.88a11.626,11.626,0,0,0,11.654-11.654v-7.769a11.744,11.744,0,0,0-4.322-9.08c-2.039-7.478-2.039-28.794,0-36.272A11.572,11.572,0,0,0,217.533,174.8ZM62.152,65.066a2.922,2.922,0,0,1,2.913-2.913h102.94a2.922,2.922,0,0,1,2.913,2.913v9.711a2.922,2.922,0,0,1-2.913,2.913H65.066a2.922,2.922,0,0,1-2.913-2.913Zm0,31.076a2.922,2.922,0,0,1,2.913-2.913h102.94a2.922,2.922,0,0,1,2.913,2.913v9.711a2.922,2.922,0,0,1-2.913,2.913H65.066a2.922,2.922,0,0,1-2.913-2.913ZM185.195,217.533H46.614a15.538,15.538,0,0,1,0-31.076h138.58A174.808,174.808,0,0,0,185.195,217.533Z" transform="translate(97.403 69.921)" fill="#fff"/>
  </g>
</svg>
