<svg xmlns="http://www.w3.org/2000/svg" xmlns:xlink="http://www.w3.org/1999/xlink" width="412" height="389" viewBox="0 0 412 389">
  <defs>
    <clipPath id="clip-Setting">
      <rect width="412" height="389"/>
    </clipPath>
    <linearGradient id="myGradient">
      <stop offset="5%"  stop-color="#5B77FF" />
      <stop offset="95%" stop-color="#37D8B9" />
    </linearGradient>
  </defs>
  <g id="Setting" clip-path="url(#clip-Setting)">
    <path id="Icon_ionic-ios-settings" data-name="Icon ionic-ios-settings" d="M211.011,117.046a28.965,28.965,0,0,1,18.582-27.023A114.812,114.812,0,0,0,215.7,56.553a29.353,29.353,0,0,1-11.782,2.521,28.9,28.9,0,0,1-26.437-40.681A114.464,114.464,0,0,0,144.069,4.5a28.991,28.991,0,0,1-27.023,18.582A28.991,28.991,0,0,1,90.023,4.5,114.812,114.812,0,0,0,56.553,18.392,28.9,28.9,0,0,1,30.116,59.073a28.4,28.4,0,0,1-11.782-2.521A117.349,117.349,0,0,0,4.5,90.082,28.932,28.932,0,0,1,23.082,117.1,29,29,0,0,1,4.559,144.128,114.812,114.812,0,0,0,18.451,177.6a28.913,28.913,0,0,1,38.16,38.16,115.482,115.482,0,0,0,33.471,13.892,28.887,28.887,0,0,1,53.928,0,114.812,114.812,0,0,0,33.471-13.892,28.941,28.941,0,0,1,38.16-38.16,115.482,115.482,0,0,0,13.892-33.471A29.1,29.1,0,0,1,211.011,117.046Zm-93.437,46.836a46.894,46.894,0,1,1,46.894-46.894A46.881,46.881,0,0,1,117.574,163.882Z" transform="translate(88.678 77.68)" fill="url(#myGradient)"/>
  </g>
</svg>
