<svg xmlns="http://www.w3.org/2000/svg" xmlns:xlink="http://www.w3.org/1999/xlink" width="412" height="389" viewBox="0 0 412 389">
  <defs>
    <clipPath id="clip-Cá_nhân">
      <rect width="412" height="389"/>
    </clipPath>
  </defs>
  <g id="Cá_nhân" data-name="Cá nhân" clip-path="url(#clip-Cá_nhân)">
    <path id="Icon_awesome-user-alt" data-name="Icon awesome-user-alt" d="M132.642,149.222A74.611,74.611,0,1,0,58.031,74.611,74.63,74.63,0,0,0,132.642,149.222Zm66.321,16.58H170.413a90.194,90.194,0,0,1-75.544,0H66.321A66.316,66.316,0,0,0,0,232.123v8.29a24.877,24.877,0,0,0,24.87,24.87H240.413a24.877,24.877,0,0,0,24.87-24.87v-8.29A66.316,66.316,0,0,0,198.962,165.8Z" transform="translate(73.733 61.983)" fill="#fff"/>
  </g>
</svg>
