<svg xmlns="http://www.w3.org/2000/svg" xmlns:xlink="http://www.w3.org/1999/xlink" width="412" height="389" viewBox="0 0 412 389">
  <defs>
    <clipPath id="clip-Phone">
      <rect width="412" height="389"/>
    </clipPath>
  </defs>
  <g id="Phone" clip-path="url(#clip-Phone)">
    <path id="Icon_awesome-phone-square-alt" data-name="Icon awesome-phone-square-alt" d="M226.645,2.25H27.2A27.2,27.2,0,0,0,0,29.447V228.9a27.2,27.2,0,0,0,27.2,27.2H226.645a27.2,27.2,0,0,0,27.2-27.2V29.447a27.2,27.2,0,0,0-27.2-27.2Zm-9.287,174.16-8.5,36.83a8.5,8.5,0,0,1-8.278,6.59A164.33,164.33,0,0,1,36.263,55.512a8.9,8.9,0,0,1,6.59-8.278l36.83-8.5a10.329,10.329,0,0,1,1.91-.221,9.219,9.219,0,0,1,7.814,5.151l17,39.663a10.142,10.142,0,0,1,.686,3.349,9.632,9.632,0,0,1-3.116,6.578L82.5,110.819a131.4,131.4,0,0,0,62.769,62.769l17.565-21.469A9.632,9.632,0,0,1,169.417,149a10.114,10.114,0,0,1,3.349.686l39.663,17a9.207,9.207,0,0,1,5.151,7.814A9.862,9.862,0,0,1,217.358,176.41Z" transform="translate(79.329 66.079)" fill="#fff"/>
  </g>
</svg>
