<svg xmlns="http://www.w3.org/2000/svg" xmlns:xlink="http://www.w3.org/1999/xlink" width="412" height="389" viewBox="0 0 412 389">
  <defs>
    <clipPath id="clip-Send">
      <rect width="412" height="389"/>
    </clipPath>
  </defs>
  <g id="Send" clip-path="url(#clip-Send)">
    <path id="Icon_ionic-ios-send" data-name="Icon ionic-ios-send" d="M215.79,4.991,7.21,95.9a4.781,4.781,0,0,0,.17,8.693L63.8,136.469a9.1,9.1,0,0,0,10.4-1.023l111.251-95.91c.739-.625,2.5-1.818,3.182-1.136.739.739-.4,2.443-1.023,3.182L91.358,149.992a9.067,9.067,0,0,0-.909,10.852l36.875,59.148a4.8,4.8,0,0,0,8.636-.114L222.211,11.3A4.782,4.782,0,0,0,215.79,4.991Z" transform="translate(176.498 29.041) rotate(45)" fill="#fff"/>
  </g>
</svg>
