<svg xmlns="http://www.w3.org/2000/svg" xmlns:xlink="http://www.w3.org/1999/xlink" width="412" height="410" viewBox="0 0 412 389">
  <defs>
    <clipPath id="clip-Thay_đổi_mật_khẩu">
      <rect width="412" height="389"/>
    </clipPath>
    <linearGradient id="myGradient">
      <stop offset="5%"  stop-color="#5B77FF" />
      <stop offset="95%" stop-color="#37D8B9" />
    </linearGradient>
  </defs>
  <g id="Thay_đổi_mật_khẩu" data-name="Thay đổi mật khẩu" clip-path="url(#clip-Thay_đổi_mật_khẩu)">
    <path id="Icon_awesome-keycdn" data-name="Icon awesome-keycdn" d="M31.385,197.973,61.147,168.95C76.938,190,96.123,201.417,123.425,202.105a79.815,79.815,0,0,0,42.5-11.019c2.509,2.607,9.1,9.593,10.281,10.822a94.05,94.05,0,0,1-111.077-6.985c.148-.3-18.792,18.447-18.988,18.644,4.673,14.659-6.444,30.7-22.776,30.7C10.183,244.215,0,233.589,0,220.405a23.478,23.478,0,0,1,31.385-22.432ZM205.97,73.811a94.16,94.16,0,0,1,14.118,51.161c-.541,22.038-9.347,43.044-23.908,59.523.148.148,11.708,12.4,11.855,12.544a14.817,14.817,0,1,1-12.4,11.855c-12.249-13.085-21.842-23.219-21.842-23.219,21.005-16.775,31.139-39.157,31.68-61.1A79.545,79.545,0,0,0,195.1,84.141l10.872-10.33ZM51.161,22.748A14.688,14.688,0,0,1,54.9,35.686l22.58,23.662A80.338,80.338,0,0,0,66.263,69.826,79.514,79.514,0,0,0,56.08,160.98L45.257,171.557a93.132,93.132,0,0,1-13.676-51.5A94.352,94.352,0,0,1,54.948,60.479L42.5,47.492a14.755,14.755,0,1,1,8.658-24.744ZM228.7.563c12.79,0,23.17,11.019,23.17,23.76A23.464,23.464,0,0,1,228.7,47.788a31.369,31.369,0,0,1-7.822-.885L189.933,76.27C173.847,54.822,152.2,43.852,127.508,43.213A78.375,78.375,0,0,0,85.1,54.232L74.724,43.409A93.866,93.866,0,0,1,185.8,50.493L206.02,31.5a23.45,23.45,0,0,1-1.082-7.133A23.978,23.978,0,0,1,228.7.563ZM126.278,52.412a63.5,63.5,0,0,1,8.068.541A70.123,70.123,0,1,1,56.08,113.8c4.575-35.616,34.484-61.294,70.2-61.393ZM97.254,111.148a28.883,28.883,0,0,0,15.938,25.679l-5.411,25.433h36.255l-5.411-25.433c9.888-5.362,15.791-14.266,15.938-25.679-.2-16.135-12.692-28.286-28.679-28.679-15.791.394-28.187,12.2-28.63,28.679Zm28.679-35.812" transform="translate(79.781 72.217)" fill="url(#myGradient)"/>
  </g>
</svg>
