<svg xmlns="http://www.w3.org/2000/svg" xmlns:xlink="http://www.w3.org/1999/xlink" width="412" height="389" viewBox="0 0 412 389">
  <defs>
    <clipPath id="clip-Website">
      <rect width="412" height="389"/>
    </clipPath>
  </defs>
  <g id="Website" clip-path="url(#clip-Website)">
    <path id="globe2" d="M16.353,120.451H56.346a215.2,215.2,0,0,1,7.016-48.309A146.534,146.534,0,0,1,38.23,61.428a111.843,111.843,0,0,0-21.877,59.023ZM48.98,48.966a133.825,133.825,0,0,0,19.244,7.873,142.056,142.056,0,0,1,7.723-17.309,107.6,107.6,0,0,1,9.586-14.982A112.578,112.578,0,0,0,49,48.98ZM128.481,0A128.481,128.481,0,1,0,256.962,128.481,128.481,128.481,0,0,0,128.481,0Zm-8.03,17.295c-10.764,3.276-21.442,13.169-30.307,29.793a122.649,122.649,0,0,0-6.346,14A204.447,204.447,0,0,0,120.451,65.7Zm0,64.469a217.131,217.131,0,0,1-41.614-5.332,198.245,198.245,0,0,0-6.424,44.019h48.038Zm16.06,38.687V81.764a217.131,217.131,0,0,0,41.614-5.332,197.607,197.607,0,0,1,6.424,44.019Zm-16.06,16.06H72.428a196.8,196.8,0,0,0,6.41,44.019,218.358,218.358,0,0,1,41.614-5.318Zm16.06,38.687V136.511h48.023a198.232,198.232,0,0,1-6.41,44.019,218.352,218.352,0,0,0-41.614-5.318Zm-16.06,16.06A203.72,203.72,0,0,0,83.8,195.869a125.177,125.177,0,0,0,6.346,14c8.865,16.624,19.558,26.5,30.307,29.793V191.273Zm-34.9,41.164a107.526,107.526,0,0,1-9.586-14.982,142.245,142.245,0,0,1-7.723-17.309A134.2,134.2,0,0,0,49,208a112.578,112.578,0,0,0,36.553,24.411ZM38.223,195.534A145.436,145.436,0,0,1,63.355,184.82a214.564,214.564,0,0,1-7.016-48.309H16.346a111.843,111.843,0,0,0,21.877,59.023Zm133.185,36.888A112.578,112.578,0,0,0,207.947,208a134.153,134.153,0,0,0-19.222-7.873A142.277,142.277,0,0,1,181,217.433a107.41,107.41,0,0,1-9.586,14.982Zm1.763-36.553a202.845,202.845,0,0,0-36.66-4.6v48.4c10.764-3.276,21.442-13.169,30.307-29.793a122.651,122.651,0,0,0,6.346-14ZM193.6,184.82a145.437,145.437,0,0,1,25.132,10.714,111.843,111.843,0,0,0,21.877-59.023H200.616A214.483,214.483,0,0,1,193.6,184.82Zm7.016-64.369h39.993a111.829,111.829,0,0,0-21.877-59.023A145.439,145.439,0,0,1,193.6,72.142,215.138,215.138,0,0,1,200.616,120.451Zm-11.885-63.6a142.192,142.192,0,0,0-7.745-17.331A107.473,107.473,0,0,0,171.4,24.54a112.691,112.691,0,0,1,36.539,24.426,134.392,134.392,0,0,1-19.222,7.873Zm-15.582,4.24A204.446,204.446,0,0,1,136.5,65.7V17.295c10.764,3.276,21.442,13.169,30.307,29.793A122.648,122.648,0,0,1,173.15,61.093Z" transform="translate(77.53 66.53)" fill="#fff" fill-rule="evenodd"/>
  </g>
</svg>
